<svg xmlns="http://www.w3.org/2000/svg" width="44" height="41" viewBox="0 0 44 41">
  <g id="Group_120" data-name="Group 120" transform="translate(-0.028 0.455)">
    <g id="Group_118" data-name="Group 118" transform="translate(0 0)">
      <ellipse id="Ellipse_3" data-name="Ellipse 3" cx="20" cy="19.5" rx="20" ry="19.5" transform="translate(0.027 -0.455)" fill="#354558"/>
      <circle id="Ellipse_2" data-name="Ellipse 2" cx="5.968" cy="5.968" r="5.968" transform="translate(13.179 5.623)" fill="#fff"/>
      <path id="Path_2" data-name="Path 2" d="M31.443,150a10.818,10.818,0,0,0-10.818,10.818H42.26A10.818,10.818,0,0,0,31.443,150Z" transform="translate(-12.296 -129.456)" fill="#fff"/>
    </g>
    <g id="Ellipse_36" data-name="Ellipse 36" transform="translate(23.027 19.545)" fill="#fff" stroke="#ccc" stroke-width="1">
      <circle cx="10.5" cy="10.5" r="10.5" stroke="none"/>
      <circle cx="10.5" cy="10.5" r="10" fill="none"/>
    </g>
    <g id="photo-camera" transform="translate(29.346 25.248)">
      <g id="Group_119" data-name="Group 119" transform="translate(0 0)">
        <path id="Path_52" data-name="Path 52" d="M9.387,38.224a1.255,1.255,0,0,0-.921-.382H7.326l-.259-.692a.945.945,0,0,0-.354-.43.906.906,0,0,0-.527-.181h-2.6a.906.906,0,0,0-.527.181.945.945,0,0,0-.354.43l-.259.692H1.3a1.255,1.255,0,0,0-.921.382A1.255,1.255,0,0,0,0,39.145V43.7a1.255,1.255,0,0,0,.382.921,1.255,1.255,0,0,0,.921.382H8.466a1.3,1.3,0,0,0,1.3-1.3V39.145A1.255,1.255,0,0,0,9.387,38.224Zm-2.892,4.81a2.2,2.2,0,0,1-1.61.669,2.2,2.2,0,0,1-1.61-.669,2.272,2.272,0,0,1,0-3.22,2.195,2.195,0,0,1,1.61-.669,2.2,2.2,0,0,1,1.61.669,2.272,2.272,0,0,1,0,3.22Z" transform="translate(0 -36.54)" fill="#354558"/>
        <path id="Path_53" data-name="Path 53" d="M193.321,228.4a1.468,1.468,0,1,0,1.035.43A1.411,1.411,0,0,0,193.321,228.4Z" transform="translate(-188.437 -224.984)" fill="gray"/>
      </g>
    </g>
  </g>
</svg>
